<mxfile host="app.diagrams.net" agent="Mozilla/5.0 (Macintosh; Intel Mac OS X 10_15_7) AppleWebKit/537.36 (KHTML, like Gecko) Chrome/128.0.0.0 Safari/537.36" version="24.8.6">
  <diagram name="第 1 页" id="P6QT8EUtBM4lnJyBZkOL">
    <mxGraphModel dx="1417" dy="650" grid="1" gridSize="10" guides="1" tooltips="1" connect="1" arrows="1" fold="1" page="1" pageScale="1" pageWidth="827" pageHeight="1169" math="0" shadow="0">
      <root>
        <mxCell id="0" />
        <mxCell id="1" parent="0" />
        <mxCell id="gsTA_9v_mbj215GvSHii-2" value="Related Keywords" style="rounded=1;whiteSpace=wrap;html=1;" vertex="1" parent="1">
          <mxGeometry x="80" y="200" width="120" height="40" as="geometry" />
        </mxCell>
        <mxCell id="gsTA_9v_mbj215GvSHii-3" value="MySQL" style="shape=cylinder3;whiteSpace=wrap;html=1;boundedLbl=1;backgroundOutline=1;size=15;" vertex="1" parent="1">
          <mxGeometry x="360" y="180" width="60" height="80" as="geometry" />
        </mxCell>
        <mxCell id="gsTA_9v_mbj215GvSHii-4" value="Redis" style="shape=cylinder3;whiteSpace=wrap;html=1;boundedLbl=1;backgroundOutline=1;size=15;" vertex="1" parent="1">
          <mxGeometry x="360" y="60" width="60" height="80" as="geometry" />
        </mxCell>
        <mxCell id="gsTA_9v_mbj215GvSHii-5" style="edgeStyle=orthogonalEdgeStyle;rounded=0;orthogonalLoop=1;jettySize=auto;html=1;exitX=1;exitY=0.5;exitDx=0;exitDy=0;entryX=0;entryY=0.5;entryDx=0;entryDy=0;entryPerimeter=0;" edge="1" parent="1" source="gsTA_9v_mbj215GvSHii-2" target="gsTA_9v_mbj215GvSHii-3">
          <mxGeometry relative="1" as="geometry" />
        </mxCell>
        <mxCell id="gsTA_9v_mbj215GvSHii-8" value="Showroom" style="rounded=0;whiteSpace=wrap;html=1;" vertex="1" parent="1">
          <mxGeometry x="560" y="80" width="120" height="240" as="geometry" />
        </mxCell>
        <mxCell id="gsTA_9v_mbj215GvSHii-9" value="" style="endArrow=classic;html=1;rounded=0;entryX=1;entryY=0.25;entryDx=0;entryDy=0;" edge="1" parent="1">
          <mxGeometry width="50" height="50" relative="1" as="geometry">
            <mxPoint x="890" y="120" as="sourcePoint" />
            <mxPoint x="680" y="120" as="targetPoint" />
          </mxGeometry>
        </mxCell>
        <mxCell id="gsTA_9v_mbj215GvSHii-10" value="Google Bot" style="edgeLabel;html=1;align=center;verticalAlign=middle;resizable=0;points=[];" vertex="1" connectable="0" parent="gsTA_9v_mbj215GvSHii-9">
          <mxGeometry x="-0.07" y="-3" relative="1" as="geometry">
            <mxPoint as="offset" />
          </mxGeometry>
        </mxCell>
        <mxCell id="gsTA_9v_mbj215GvSHii-12" value="Query" style="edgeStyle=orthogonalEdgeStyle;rounded=0;orthogonalLoop=1;jettySize=auto;html=1;exitX=0;exitY=0.25;exitDx=0;exitDy=0;entryX=1;entryY=0;entryDx=0;entryDy=27.5;entryPerimeter=0;" edge="1" parent="1" source="gsTA_9v_mbj215GvSHii-8" target="gsTA_9v_mbj215GvSHii-4">
          <mxGeometry relative="1" as="geometry">
            <Array as="points">
              <mxPoint x="560" y="120" />
              <mxPoint x="490" y="120" />
              <mxPoint x="490" y="88" />
            </Array>
          </mxGeometry>
        </mxCell>
        <mxCell id="gsTA_9v_mbj215GvSHii-13" style="edgeStyle=orthogonalEdgeStyle;rounded=0;orthogonalLoop=1;jettySize=auto;html=1;exitX=0.5;exitY=1;exitDx=0;exitDy=0;exitPerimeter=0;entryX=0.5;entryY=0;entryDx=0;entryDy=0;entryPerimeter=0;" edge="1" parent="1" source="gsTA_9v_mbj215GvSHii-4" target="gsTA_9v_mbj215GvSHii-3">
          <mxGeometry relative="1" as="geometry" />
        </mxCell>
        <mxCell id="gsTA_9v_mbj215GvSHii-14" value="Query &amp;amp; Cache" style="edgeLabel;html=1;align=center;verticalAlign=middle;resizable=0;points=[];" vertex="1" connectable="0" parent="gsTA_9v_mbj215GvSHii-13">
          <mxGeometry y="-3" relative="1" as="geometry">
            <mxPoint as="offset" />
          </mxGeometry>
        </mxCell>
      </root>
    </mxGraphModel>
  </diagram>
</mxfile>
